<?xml version="1.0" encoding="UTF-8" standalone="no"?>
<!DOCTYPE svg PUBLIC "-//W3C//DTD SVG 1.1//EN" "http://www.w3.org/Graphics/SVG/1.1/DTD/svg11.dtd">
<svg width="100%" height="100%" viewBox="0 0 360 356" version="1.1"
    xmlns="http://www.w3.org/2000/svg"
    xmlns:xlink="http://www.w3.org/1999/xlink" xml:space="preserve"
    xmlns:serif="http://www.serif.com/" style="fill-rule:evenodd;clip-rule:evenodd;stroke-linejoin:round;stroke-miterlimit:2;">
    <g transform="matrix(1,0,0,1,-120.47,-22.15)">
        <path d="M360,55.54L372.76,55.54L376.97,43.07L380.87,55.58L393.72,55.58L383.72,63.67L387.33,75.52L376.8,68.39L366.36,75.56L369.92,63.56L360,55.54ZM416,105.64L428.8,105.64L433,93.16L436.9,105.66L449.75,105.66L439.75,113.76L443.36,125.6L432.83,118.48L422.4,125.66L425.95,113.66L416,105.64ZM445.81,177.74L458.58,177.74L462.78,165.27L466.68,177.77L479.53,177.77L469.53,185.87L473.14,197.71L462.61,190.59L452.18,197.77L455.73,185.77L445.81,177.74ZM385.11,201.94L397.88,201.94L402.08,189.48L406,202L418.85,202L408.85,210.1L412.46,221.94L402,214.79L391.52,222L395.07,210L385.11,201.94ZM434.25,257.53L447,257.53L451.21,245.06L455.11,257.57L468,257.57L458,265.66L461.61,277.51L451.08,270.39L440.65,277.56L444.2,265.56L434.25,257.53ZM389.29,319.22L402.05,319.22L406.26,306.76L410.15,319.26L423,319.26L413,327.36L416.62,339.2L406.09,332.08L395.65,339.25L399.21,327.25L389.29,319.22ZM354.94,271.41L367.7,271.41L371.91,258.94L375.81,271.45L388.66,271.45L378.66,279.54L382.27,291.38L371.74,284.27L361.31,291.44L364.86,279.44L354.94,271.41ZM322.34,357.53L335.11,357.53L339.31,345.06L343.21,357.57L356.07,357.57L346.07,365.66L349.68,377.5L339.15,370.39L328.72,377.56L332.27,365.56L322.34,357.53ZM241.61,357.53L254.37,357.53L258.58,345.06L262.47,357.57L275.33,357.57L265.33,365.66L269,377.49L258.47,370.38L248,377.55L251.56,365.55L241.61,357.53ZM212.81,271.41L225.57,271.41L229.78,258.94L233.68,271.45L246.53,271.45L236.53,279.54L240.14,291.38L229.61,284.27L219.17,291.44L222.73,279.44L212.81,271.41ZM174.53,319.22L187.29,319.22L191.5,306.76L195.39,319.26L208.25,319.26L198.25,327.36L201.86,339.2L191.33,332.08L180.89,339.25L184.45,327.25L174.53,319.22ZM130.41,257.53L143.17,257.53L147.38,245.06L151.28,257.57L164.13,257.57L154.13,265.66L157.74,277.51L147.21,270.39L136.77,277.56L140.33,265.56L130.41,257.53ZM120.47,177.74L133.23,177.74L137.44,165.27L141.33,177.77L154.19,177.77L144.19,185.87L147.8,197.71L137.28,190.59L126.84,197.77L130.39,185.77L120.47,177.74ZM182.32,201.94L195.08,201.94L199.29,189.48L203.19,201.98L216,201.98L206,210.08L209.61,221.92L199.08,214.8L188.72,222L192.28,210L182.32,201.94ZM150.89,105.64L163.65,105.64L167.86,93.17L171.76,105.67L184.61,105.67L174.61,113.77L178.22,125.61L167.69,118.49L157.26,125.67L160.81,113.67L150.89,105.64ZM207.32,55.54L220.08,55.54L224.29,43.07L228.18,55.58L241,55.58L231,63.67L234.61,75.52L224.08,68.4L213.64,75.57L217.2,63.57L207.32,55.54ZM283.77,34.61L296.54,34.61L300.74,22.15L304.64,34.65L317.5,34.65L307.5,42.75L311.11,54.59L300.59,47.47L290.15,54.64L293.7,42.64L283.77,34.61ZM366.77,78.92L329.05,132.66L326.71,131L364.44,77.28L366.77,78.92Z" style="fill-rule:nonzero;"/>
    </g>
</svg>
