<?xml version="1.0" encoding="UTF-8" standalone="no"?>
<!DOCTYPE svg PUBLIC "-//W3C//DTD SVG 1.1//EN" "http://www.w3.org/Graphics/SVG/1.1/DTD/svg11.dtd">
<svg width="100%" height="100%" viewBox="0 0 2826 3546" version="1.1" xmlns="http://www.w3.org/2000/svg" xmlns:xlink="http://www.w3.org/1999/xlink" xml:space="preserve" xmlns:serif="http://www.serif.com/" style="fill-rule:evenodd;clip-rule:evenodd;stroke-linejoin:round;stroke-miterlimit:2;">
    <g transform="matrix(1,0,0,1,-1087.42,-727.392)">
        <g transform="matrix(3.8234,0,0,3.8234,-4840.93,-1629.27)">
            <g transform="matrix(6.23611,0,0,6.23611,-1379.84,-4821.68)">
                <path d="M470.753,873.323L523.916,1019.42L534.384,1019.42L587.547,873.323L576.316,873.323L529.052,1003.1C529.052,1003.1 481.985,873.323 481.985,873.323L470.753,873.323ZM524.65,1018.37L472.25,874.371L481.25,874.371L529.05,1006.17L577.05,874.371L586.05,874.371L533.65,1018.37L524.65,1018.37Z" style="fill:rgb(99,102,241);"/>
            </g>
            <g transform="matrix(6.23611,0,0,6.23611,-1379.84,-4821.68)">
                <clipPath id="_clip1">
                    <rect x="527.867" y="940.188" width="56.9" height="78.183"/>
                </clipPath>
                <g clip-path="url(#_clip1)">
                    <path d="M524.65,1018.37L472.25,874.371L481.25,874.371L529.05,1006.17L577.05,874.371L586.05,874.371L533.65,1018.37L527.68,1002.39L524.65,1018.37Z" style="fill:rgb(99,102,241);fill-rule:nonzero;"/>
                </g>
            </g>
            <g transform="matrix(6.23611,0,0,6.23611,-1379.84,-4821.68)">
                <clipPath id="_clip2">
                    <rect x="472.25" y="874.371" width="56.9" height="78.183"/>
                </clipPath>
                <g clip-path="url(#_clip2)">
                    <path d="M524.65,1018.37L472.25,874.371L481.25,874.371L529.05,1006.17L577.05,874.371L586.05,874.371L533.65,1018.37L524.65,1018.37Z" style="fill:rgb(99,102,241);fill-rule:nonzero;"/>
                </g>
            </g>
        </g>
    </g>
</svg>
